<svg width="1362" height="756" viewBox="0 0 1362 756" fill="none" xmlns="http://www.w3.org/2000/svg">
<g clip-path="url(#clip0_5_6)">
<path d="M0 756L45.4 667.879C90.8 578.813 181.6 403.987 272.4 378C363.2 352.013 454 479.588 544.8 541.721C635.6 604.8 726.4 604.8 817.2 630.079C908 654.413 998.8 706.387 1089.6 604.8C1180.4 503.212 1271.2 252.787 1316.6 125.921L1362 0H1316.6C1271.2 0 1180.4 0 1089.6 0C998.8 0 908 0 817.2 0C726.4 0 635.6 0 544.8 0C454 0 363.2 0 272.4 0C181.6 0 90.8 0 45.4 0H0V756Z" fill="#29ABE2"/>
</g>
<defs>
<clipPath id="clip0_5_6">
<rect width="1362" height="756" fill="white"/>
</clipPath>
</defs>
</svg>
