<svg width="28" height="28" viewBox="0 0 28 28" fill="none" xmlns="http://www.w3.org/2000/svg">
<path d="M14 2.33334C7.567 2.33334 2.33333 7.56701 2.33333 14C2.33333 20.433 7.567 25.6667 14 25.6667C20.433 25.6667 25.6667 20.433 25.6667 14C25.6667 7.56701 20.433 2.33334 14 2.33334ZM14 23.3333C8.85383 23.3333 4.66666 19.1462 4.66666 14C4.66666 8.85384 8.85383 4.66668 14 4.66668C19.1462 4.66668 23.3333 8.85384 23.3333 14C23.3333 19.1462 19.1462 23.3333 14 23.3333Z" fill="#8CC63F"/>
<path d="M11.6655 15.8515L8.98333 13.174L7.336 14.826L11.6678 19.1485L19.4915 11.3248L17.8418 9.67517L11.6655 15.8515Z" fill="#8CC63F"/>
</svg>
